<?xml version="1.0" encoding="UTF-8"?>
<svg width="176px" height="26px" viewBox="0 0 176 26" version="1.1" xmlns="http://www.w3.org/2000/svg" xmlns:xlink="http://www.w3.org/1999/xlink">
    <!-- Generator: sketchtool 63.1 (101010) - https://sketch.com -->
    <title>8470521F-2655-45ED-8D3C-92B466504101@1.5x</title>
    <desc>Created with sketchtool.</desc>
    <g id="Home" stroke="none" stroke-width="1" fill="none" fill-rule="evenodd">
        <g id="3.0_web_home_2" transform="translate(-328.000000, -782.000000)">
            <g id="hp_cnbc_logo" style="mix-blend-mode: multiply;" transform="translate(315.000000, 767.000000)">
                <rect id="Rectangle" x="0" y="0" width="216.526316" height="54.5789474"></rect>
                <path d="M19.1040672,31.4575825 C19.7980257,31.5698214 20.3798346,31.8693011 20.9271561,32.2144687 L33.95362,41 L17.8148735,40.9963027 C16.1402643,40.8058928 14.8497543,39.9003231 14.0626011,38.3604056 C13.265444,36.8056991 13.4726311,34.599743 14.5443705,33.2209213 C15.7122004,31.8172751 17.4015523,31.1110945 19.1040672,31.4575825 Z M56.450932,33.2209213 C57.5224081,34.599743 57.7298585,36.8056991 56.9327014,38.3604056 C56.1844056,39.8233272 54.9830183,40.7137499 53.4285309,40.9623876 L53.1801657,40.9963027 L37.0416825,41 L50.0678831,32.2144687 C50.6152047,31.8693011 51.1967503,31.5698214 51.8904455,31.4575825 C53.5932237,31.1110945 55.2828388,31.8172751 56.450932,33.2209213 Z M80.6107403,18.9869803 C87.3686538,19.1448047 93.85882,21.2631261 93.8869659,26.1766763 L84.3209532,26.1766763 C83.8532975,23.8969106 81.9942218,23.2916759 79.9128652,23.0983773 C73.191758,22.4721476 71.9988029,27.5239751 71.9988029,29.6567758 C71.9988029,33.3055592 73.0589668,36.3230452 79.6581083,36.3230452 C80.8748792,36.3230452 84.2357937,35.0633461 84.2357937,33.0174212 L93.7260289,33.0174212 C93.3435327,39.0871434 83.1943937,40.541589 78.7675418,40.541589 C69.5955722,40.541589 61.7435753,38.8243441 62.1231848,29.7385839 C62.3938188,23.2533058 68.4884984,18.7024621 80.6107403,18.9869803 Z M175.669699,18.9869803 C182.427613,19.1448047 188.919222,21.2631261 188.947368,26.1766763 L179.380634,26.1766763 C178.912978,23.8969106 177.053181,23.2916759 174.973268,23.0983773 C168.250717,22.4721476 167.059927,27.5239751 167.059927,29.6567758 C167.059927,33.3055592 168.119369,36.3230452 174.719233,36.3230452 C175.935282,36.3230452 179.294753,35.0633461 179.294753,33.0174212 L188.786431,33.0174212 C188.405379,39.0871434 178.254074,40.541589 173.827223,40.541589 C164.655253,40.541589 156.803256,38.8243441 157.182866,29.7385839 C157.454221,23.2533058 163.549623,18.7024621 175.669699,18.9869803 Z M107.901481,19.4206353 L118.413631,34.2409219 L118.49879,34.2409219 L118.49879,19.4206353 L126.395532,19.4206353 L126.395532,39.9986152 L114.591556,39.9986152 L103.564119,25.1783286 L103.477516,25.1783286 L103.477516,39.9986152 L95.5814962,39.9986152 L95.5814962,19.4206353 L107.901481,19.4206353 Z M143.797665,19.4206353 C150.990036,19.4206353 155.220588,21.4412215 155.220588,24.4934578 C155.220588,26.2954065 153.45028,28.5215988 149.501188,29.1767871 L149.501188,29.2339803 C154.255687,29.5184985 156.01084,32.5410522 156.01084,34.3531365 C156.01084,37.9802009 151.885654,39.9986152 143.841688,39.9986152 L128.832682,39.9986152 L128.832682,19.4206353 L143.797665,19.4206353 Z M25.4555247,23.0898439 C25.969412,23.5810541 26.2884854,24.1631117 26.5541167,24.7633917 L32.6072984,39.4632517 L19.1901539,30.2575508 C17.9049091,29.1388593 17.3291552,27.6467425 17.5150182,25.9185278 C17.7008811,24.1720908 19.0748451,22.4620985 20.7141772,21.9344437 C22.3982638,21.407053 24.2324097,21.8253739 25.4555247,23.0898439 Z M48.8426621,21.7160401 C50.4814676,21.7160401 51.9352,22.5075222 52.8566168,23.9264858 C53.8054128,25.3454493 53.8585917,27.6652289 52.9097957,29.1024147 C52.4848909,29.7753198 51.8554317,30.3755997 51.2088603,30.8034279 L38.3408802,39.4357862 L42.6744349,29.1024147 L44.7305106,24.2901397 C45.5634714,22.7351691 47.1314595,21.7435056 48.8426621,21.7160401 Z M31.835941,16.1220543 C33.3512767,16.4946874 34.7692055,17.9503596 35.1417211,19.5055944 C35.3188964,20.0881802 35.2920437,20.7880226 35.2567666,21.4250113 L32.580709,37.7986831 L26.3150749,22.671259 C25.6413876,21.0521141 25.9249207,18.9235367 27.0772182,17.613643 C28.3087575,16.2401032 30.0457598,15.6577815 31.835941,16.1220543 Z M42.2842807,16.3129925 C43.9770549,17.004384 45.1554154,18.814467 45.1820048,20.6609946 C45.1733172,21.3431429 45.0582717,22.0437776 44.8013281,22.6530366 L38.4382871,37.743752 L38.154754,36.0976698 L36.2405764,23.7263044 C36.1608081,22.9712669 36.4706674,22.3348064 37.0730107,21.9162214 L37.9862663,21.3706084 C38.0397085,21.1794062 37.7735507,21.1157601 37.649291,21.0521141 L35.8591099,21.0338918 C35.7443277,19.2507461 36.5241095,17.6321294 38.0304943,16.6589523 C39.2004304,15.8944075 40.9816606,15.6944902 42.2842807,16.3129925 Z M140.698724,31.3240671 L137.49586,31.3240671 L137.49586,35.68668 L139.977033,35.68668 C144.582143,35.68668 146.271621,35.2008995 146.271621,33.6052807 C146.271621,31.8952755 144.138303,31.3240671 140.698724,31.3240671 Z M140.698724,23.2402744 L137.49586,23.2402744 L137.49586,27.4161043 L139.977033,27.4161043 C143.797665,27.4161043 145.824894,27.1171068 145.824894,25.520764 C145.824894,23.8107588 144.138303,23.2402744 140.698724,23.2402744 Z" id="cnbc_logo" fill="#D5D8E3"></path>
            </g>
        </g>
    </g>
</svg>