<?xml version="1.0" encoding="UTF-8"?>
<svg width="127px" height="26px" viewBox="0 0 127 26" version="1.1" xmlns="http://www.w3.org/2000/svg" xmlns:xlink="http://www.w3.org/1999/xlink">
    <!-- Generator: sketchtool 63.1 (101010) - https://sketch.com -->
    <title>7EDB0B7A-4565-4D66-BD71-7A38962C7B8E@1.5x</title>
    <desc>Created with sketchtool.</desc>
    <g id="Home" stroke="none" stroke-width="1" fill="none" fill-rule="evenodd">
        <g id="3.0_web_home_2" transform="translate(-1198.000000, -780.000000)">
            <g id="hp_medici_logo" transform="translate(1178.000000, 767.000000)">
                <rect id="Rectangle" x="0" y="0" width="146.736842" height="54.5789474"></rect>
                <path d="M69.6473709,36.2812307 L65.3261944,36.2812307 L65.3261944,29.6798956 L62.9812138,36.2812307 L58.6530295,36.2812307 L56.2589944,29.4757938 L56.2589944,36.2812307 L51.9378179,36.2812307 L51.9378179,17.3891137 L56.337832,17.3891137 L60.8184356,30.1345258 L65.3261944,17.3891137 L69.6473709,17.3891137 L69.6473709,36.2812307 Z M78.3992206,21.6524759 L78.3992206,24.6991112 L83.8582864,24.6991112 L83.8582864,28.9659773 L78.3992206,28.9659773 L78.3992206,32.0169925 L85.8160868,32.0169925 L85.8160868,36.2812307 L74.0780441,36.2812307 L74.0780441,17.3891137 L85.8160868,17.3891137 L85.8160868,21.6542279 L78.4000966,21.6542279 L78.3992206,21.6524759 Z M103.627253,26.8321063 C103.632575,28.0755371 103.386771,29.3072406 102.904575,30.4533801 C102.414178,31.6117782 101.696308,32.659988 100.793479,33.5359303 C99.958308,34.3570053 98.9789643,35.0171269 97.9045189,35.483219 C96.8326965,35.9489165 95.686603,36.2203128 94.519758,36.2847346 L90.0890848,36.2847346 L90.0890848,17.3882072 L93.9503753,17.3882072 C95.2147491,17.3851082 96.4681379,17.6229429 97.6434789,18.0890164 C100.014699,19.0253531 101.911405,20.8734661 102.908955,23.2195922 C103.391824,24.363989 103.637669,25.5944029 103.631741,26.8364862 L103.627253,26.8321063 Z M107.620815,36.2847346 L111.945496,36.2847346 L111.945496,17.3891137 L107.620815,17.3891137 L107.620815,36.2812307 L107.620815,36.2847346 Z M123.505716,32.0423957 C123.919957,32.0471706 124.329819,31.9572886 124.704047,31.7796037 C125.072885,31.602703 125.404427,31.3567965 125.680758,31.0551738 C126.273142,30.4133225 126.599698,29.5704744 126.594398,28.6970535 L130.920018,28.6970535 C130.923067,29.6858656 130.740321,30.6664552 130.381231,31.5877656 C130.016031,32.5054726 129.472694,33.3417647 128.782579,34.0483747 C128.102665,34.7634559 127.285018,35.3334846 126.378908,35.7241117 C125.471664,36.1149451 124.493554,36.3144436 123.505716,36.3102491 L123.48294,36.3102491 C122.499508,36.3156546 121.525729,36.1160656 120.623763,35.7241117 C119.716339,35.3270857 118.894425,34.7580226 118.203449,34.0483747 C117.543001,33.349082 117.015252,32.5354938 116.645969,31.6473317 C116.277377,30.757934 116.080324,29.8068483 116.065198,28.8442171 L116.065198,24.9294922 C116.079504,23.9460428 116.272433,22.9733817 116.634581,22.0589276 C116.995568,21.1616509 117.528523,20.3436192 118.203449,19.6508768 C118.896247,18.9400818 119.71791,18.3675342 120.624639,17.9637522 C121.527113,17.5771309 122.499398,17.3800503 123.481189,17.3846523 L123.505716,17.3846523 C124.492749,17.3814504 125.470189,17.5784286 126.378908,17.9637522 C128.199035,18.7747487 129.633727,20.2599962 130.381231,22.1071061 C130.741184,23.0296956 130.923952,24.0118838 130.920018,25.002198 L126.594398,25.002198 C126.597059,24.5588863 126.514999,24.1191482 126.352629,23.7066334 C126.196713,23.3126933 125.968881,22.9511917 125.680758,22.6405739 C125.404375,22.3387814 125.072857,22.0925959 124.704047,21.9152679 C124.329779,21.7377005 123.919944,21.6478245 123.505716,21.6524759 C123.088478,21.6486714 122.675697,21.7384715 122.297749,21.9152679 C121.92242,22.0898091 121.584941,22.3362225 121.304395,22.6405739 C121.017003,22.9505837 120.791089,23.3123438 120.638655,23.7066334 C120.471814,24.1180391 120.38758,24.5582606 120.390755,25.002198 L120.390755,28.6882938 C120.387606,29.1299577 120.471857,29.5678819 120.638655,29.9768506 C120.792017,30.3714615 121.01781,30.7339185 121.304395,31.0455381 C121.584885,31.3497277 121.922391,31.5958631 122.297749,31.769968 C122.675658,31.946878 123.088466,32.0366838 123.505716,32.03276 L123.505716,32.0423957 Z M44.5656263,20.3972061 C41.3087309,14.2241323 33.7012691,11.8062176 27.4780143,14.9661714 C22.0134037,17.6913687 19.3300605,23.9761191 21.1412232,29.8077877 C25.6086872,27.6721647 30.0253448,25.3885022 34.3395135,22.9918392 C35.5247054,22.3331072 37.8582984,23.4035466 36.1177394,24.3697452 C31.4750807,26.9494867 26.7159175,29.3952043 21.8963122,31.6674791 C21.9217154,31.7174096 21.9444908,31.769092 21.969894,31.8190225 C22.2231914,32.3042624 22.5079045,32.7724442 22.822216,33.2205799 C28.1066712,30.552949 33.4466047,27.9953989 38.8420165,25.5479294 C39.7311294,25.1458576 42.3266384,25.5750845 40.534397,26.3862359 C34.8884568,28.9417421 29.3055867,31.6254324 23.7857867,34.4373068 C27.6651121,38.7014931 33.9132259,39.8526312 39.0575059,37.2509332 C42.0421169,35.7664779 44.3060304,33.146207 45.3415476,29.9777351 C46.3770648,26.8092632 46.0975283,23.3577443 44.5656263,20.3972061 L44.5656263,20.3972061 Z M139.199654,31.8514335 L139.199654,17.3891137 L134.874974,17.3891137 L134.874974,34.8209832 L139.199654,31.8514335 Z M134.924904,36.2812307 L139.199654,36.2812307 L139.199654,33.34672 L134.924904,36.2812307 Z M143.442869,15.8947032 L142.716687,15.8947032 L142.716687,18.6321199 L142.045692,18.6321199 L142.045692,15.8885714 L141.31951,15.8885714 L141.31951,15.3463439 L143.442869,15.3463439 L143.442869,15.8885714 L143.442869,15.8947032 Z M144.742813,15.3524757 L145.217591,17.6676732 L145.227227,17.6676732 L145.706384,15.3524757 L146.696234,15.3524757 L146.696234,18.6321199 L146.083053,18.6321199 L146.083053,16.0077037 L146.073417,16.0077037 L145.482135,18.625988 L144.960931,18.625988 L144.368773,16.0077037 L144.360013,16.0077037 L144.360013,18.625988 L143.746832,18.625988 L143.746832,15.3463439 L144.743689,15.3463439 L144.742813,15.3524757 Z" id="Shape" fill="#D5D8E3"></path>
            </g>
        </g>
    </g>
</svg>