<?xml version="1.0" encoding="UTF-8"?>
<svg width="161px" height="26px" viewBox="0 0 161 26" version="1.1" xmlns="http://www.w3.org/2000/svg" xmlns:xlink="http://www.w3.org/1999/xlink">
    <!-- Generator: sketchtool 63.1 (101010) - https://sketch.com -->
    <title>32990109-0B67-489C-87F7-FF3473291C34@1.5x</title>
    <desc>Created with sketchtool.</desc>
    <g id="Home" stroke="none" stroke-width="1" fill="none" fill-rule="evenodd">
        <g id="3.0_web_home_2" transform="translate(-1002.000000, -781.000000)">
            <g id="hp_pymnts_logo" transform="translate(973.000000, 767.000000)">
                <rect id="Rectangle" x="0" y="0" width="201.315789" height="54.5789474"></rect>
                <path d="M136.67592,14.5789474 C139.077197,14.5789474 141.131623,15.1684211 142.812517,16.3741627 C144.423374,17.5296651 145.274614,19.3249734 145.342754,21.8072529 L145.347199,22.1349282 L142.332262,22.1349282 C142.172177,20.8755981 141.852007,19.8842105 141.34507,19.2143541 C140.41124,17.9818182 138.810388,17.3655502 136.569196,17.3655502 C134.754898,17.3655502 133.474216,17.7674641 132.673791,18.5712919 C131.900046,19.3751196 131.499833,20.3129187 131.499833,21.3578947 C131.499833,22.5100478 131.980088,23.3674641 132.913918,23.9033493 C133.49528,24.2333417 134.771084,24.6354783 136.741328,25.1097589 L137.076133,25.1894737 L140.277836,25.9397129 C141.825326,26.3148325 142.999284,26.7971292 143.853071,27.4401914 C145.320518,28.5655502 146.040902,30.1732057 146.014221,32.2899522 C146.014221,34.9425837 145.107071,36.8181818 143.239411,37.9435407 C141.371751,39.0688995 139.210601,39.6315789 136.755962,39.6315789 C133.90111,39.6315789 131.659918,38.8545455 130.032386,37.354067 C128.501136,35.9188267 127.702223,34.0178019 127.658997,31.6040945 L127.657789,31.2717703 L130.672726,31.2717703 C130.726088,32.6114833 131.046258,33.7100478 131.579875,34.5406699 C132.620429,36.1215311 134.408047,36.8985646 136.99609,36.8985646 C138.170048,36.8985646 139.210601,36.737799 140.171112,36.3894737 C142.012092,35.7196172 142.919241,34.5138756 142.919241,32.7990431 C142.919241,31.5129187 142.519028,30.5751196 141.745283,30.0392344 C141.002031,29.5416268 139.890691,29.1133288 138.389902,28.7328874 L138.036644,28.645933 L134.941664,27.922488 C132.913918,27.4401914 131.499833,26.9043062 130.646045,26.3416268 C129.178598,25.3502392 128.458215,23.876555 128.458215,21.8937799 C128.458215,19.7502392 129.151917,18.0086124 130.592684,16.6421053 C132.03345,15.2488038 134.061195,14.5789474 136.67592,14.5789474 Z M167.892526,27.0650718 C169.333292,27.0650718 170.587293,27.5473684 171.601165,28.538756 C172.615038,29.5301435 173.121975,30.9770335 173.121975,32.9062201 C173.121975,34.7550239 172.6684,36.3090909 171.787932,37.5148325 C170.880782,38.7205742 169.493378,39.3368421 167.625717,39.3368421 C166.051547,39.3368421 164.824227,38.8009569 163.890397,37.7291866 C162.956567,36.6574163 162.502992,35.2105263 162.502992,33.415311 C162.502992,31.4861244 162.983248,29.9320574 163.97044,28.7799043 C164.93095,27.6277512 166.238313,27.0650718 167.892526,27.0650718 Z M157.113458,27.0650718 C158.447501,27.0650718 159.514736,27.3598086 160.315162,28.0028708 C161.115587,28.645933 161.622524,29.7177033 161.782609,31.2717703 L159.914949,31.2717703 C159.808225,30.5483254 159.541417,29.9588517 159.141204,29.5033493 C158.740991,29.0210526 158.073969,28.8066986 157.16682,28.8066986 C155.939501,28.8066986 155.059032,29.3961722 154.525415,30.6019139 C154.178564,31.3789474 154.018479,32.3435407 154.018479,33.4956938 C154.018479,34.6478469 154.258606,35.6124402 154.738862,36.4162679 C155.219117,37.1933014 155.992862,37.5952153 157.033416,37.5952153 C157.833842,37.5952153 158.474182,37.354067 158.927757,36.8717703 C159.408012,36.3894737 159.728183,35.7196172 159.888268,34.862201 L161.755928,34.862201 C161.542481,36.3894737 161.008864,37.5148325 160.155077,38.2114833 C159.301289,38.908134 158.207374,39.2832536 156.84665,39.2832536 C155.352522,39.2832536 154.151883,38.7205742 153.244734,37.6220096 C152.364265,36.523445 151.910691,35.1301435 151.910691,33.4956938 C151.910691,31.4593301 152.390946,29.9052632 153.378138,28.75311 C154.36533,27.6277512 155.61933,27.0650718 157.113458,27.0650718 Z M40.1712488,15.1952153 C42.2523559,15.1952153 43.9332501,15.784689 45.2406122,16.9636364 C46.5212935,18.1425837 47.1616342,19.830622 47.1616342,21.9741627 C47.1616342,23.8497608 46.5746552,25.4574163 45.4273782,26.8239234 C44.2801013,28.1904306 42.5458454,28.8870813 40.1712488,28.8870813 L40.1712488,28.8870813 L32.7806506,28.8870813 L32.7806506,38.9349282 L29.5789474,38.9349282 L29.5789474,15.1952153 Z M49.8830819,15.1952153 L56.6600203,26.5827751 L63.4636397,15.1952153 L67.2256409,15.1952153 L58.2875528,29.369378 L58.2875528,38.9349282 L55.0858496,38.9349282 L55.0858496,29.369378 L46.1477615,15.1952153 L49.8830819,15.1952153 Z M106.980122,15.1684211 L106.980122,38.908134 L103.378206,38.908134 L91.425181,19.7770335 L91.425181,38.9349282 L88.383563,38.9349282 L88.383563,19.1339713 L81.7133479,38.9349282 L78.5383256,38.9349282 L71.7347063,18.9196172 L71.7347063,19.6430622 C71.7347063,20.2057416 71.7613871,21.1167464 71.788068,22.2956938 C71.8147489,23.4746411 71.8414297,24.3588517 71.8414297,24.9215311 L71.8414297,24.9215311 L71.8414297,38.9349282 L68.7731308,38.9349282 L68.7731308,15.1952153 L73.3622387,15.1952153 L80.1658581,35.2641148 L86.9161156,15.1952153 L92.1722451,15.1952153 L103.910947,34.2909474 L103.911824,15.1684211 L106.980122,15.1684211 Z M127.844555,15.1952153 L127.844555,18.0086124 L119.866978,18.0086124 L119.866978,38.9349282 L116.638594,38.9349282 L116.638594,18.0086124 L108.661017,18.0086124 L108.661017,15.1952153 L127.844555,15.1952153 Z M186.035511,27.1186603 C187.583001,27.1186603 188.623554,27.6813397 189.183852,28.8066986 C189.477342,29.4229665 189.637427,30.2267943 189.637427,31.2449761 L189.637427,38.9349282 L187.636362,38.9349282 L187.636362,30.923445 C187.636362,30.1464115 187.449596,29.6373206 187.049383,29.3425837 C186.675851,29.0478469 186.195596,28.9138756 185.661979,28.9138756 C184.914915,28.9138756 184.247893,29.1550239 183.714276,29.6641148 C183.180659,30.1732057 182.887169,31.030622 182.887169,32.2095694 L182.887169,38.9349282 L180.912786,38.9349282 L180.912786,31.4057416 C180.912786,30.6287081 180.832743,30.0392344 180.645977,29.6909091 C180.352488,29.1550239 179.81887,28.8870813 179.018445,28.8870813 C178.298061,28.8870813 177.63104,29.1818182 177.01738,29.7444976 C176.430401,30.307177 176.110231,31.3521531 176.110231,32.8258373 L176.110231,38.9349282 L174.189209,38.9349282 L174.189209,27.3866029 L176.08355,27.3866029 L176.08355,29.0210526 C176.537125,28.4583732 176.964018,28.0296651 177.33755,27.7885167 C177.977891,27.3598086 178.698274,27.1186603 179.4987,27.1186603 C180.405849,27.1186603 181.152913,27.3330144 181.713211,27.7885167 C182.033382,28.0564593 182.326871,28.4315789 182.566999,28.9406699 C182.993893,28.3244019 183.500829,27.8688995 184.087808,27.5741627 C184.674787,27.2794258 185.315128,27.1186603 186.035511,27.1186603 Z M148.842392,35.7464115 C149.72286,35.7464115 150.416563,36.4430622 150.416563,37.3272727 C150.416563,38.2114833 149.72286,38.908134 148.842392,38.908134 C147.961923,38.9349282 147.268221,38.2114833 147.268221,37.3272727 C147.268221,36.4430622 147.988604,35.7464115 148.842392,35.7464115 Z M167.812483,28.75311 C166.638526,28.75311 165.784738,29.2086124 165.277802,30.1196172 C164.744184,31.030622 164.477376,32.1023923 164.477376,33.3885167 C164.477376,34.6210526 164.744184,35.6392344 165.277802,36.4698565 C165.811419,37.3004785 166.638526,37.7023923 167.812483,37.7023923 C169.066484,37.6755981 169.920271,37.1665072 170.400527,36.2019139 C170.880782,35.2373206 171.094229,34.138756 171.094229,32.9598086 C171.094229,31.8880383 170.934144,31.0038278 170.587293,30.3339713 C170.053676,29.262201 169.119846,28.75311 167.812483,28.75311 Z M39.1040144,17.9282297 L32.7806506,17.9282297 L32.7806506,26.154067 L39.1306953,26.154067 C40.5447809,26.154067 41.7187387,25.8593301 42.5992071,25.2430622 C43.4796755,24.6535885 43.9065692,23.5550239 43.9065692,22.0009569 C43.9065692,20.2593301 43.2662286,19.0535885 41.9855473,18.4373206 C41.2918449,18.0889952 40.331334,17.9282297 39.1040144,17.9282297 L39.1040144,17.9282297 Z" id="pymnts_logo" fill="#D5D8E3" fill-rule="nonzero"></path>
            </g>
        </g>
    </g>
</svg>