<?xml version="1.0" encoding="UTF-8"?>
<svg width="177px" height="26px" viewBox="0 0 177 26" version="1.1" xmlns="http://www.w3.org/2000/svg" xmlns:xlink="http://www.w3.org/1999/xlink">
    <!-- Generator: sketchtool 63.1 (101010) - https://sketch.com -->
    <title>0503BECF-05B8-4EE0-8915-A19FF330541E@1.5x</title>
    <desc>Created with sketchtool.</desc>
    <g id="Home" stroke="none" stroke-width="1" fill="none" fill-rule="evenodd">
        <g id="3.0_web_home_2" transform="translate(-115.000000, -782.000000)">
            <g id="hp_techcrunch_logo" transform="translate(115.000000, 767.000000)">
                <rect id="Rectangle" x="0" y="0" width="196.842105" height="54.5789474"></rect>
                <path d="M24.8510083,15.9473684 L24.8510083,24.2245153 L16.5674537,24.2245153 L16.5674537,40.7789237 L8.28366944,40.7789237 L8.28366944,24.2245153 L3.0908609e-13,24.2245153 L3.0908609e-13,15.9473684 L24.8510083,15.9473684 Z M33.1347926,24.2245153 L33.1347926,32.5016621 L49.7021314,32.5016621 L49.7021314,40.7789237 L24.8510083,40.7789237 L24.8510083,24.2245153 L33.1347926,24.2245153 Z M159.846934,25.5460505 C161.897387,25.5460505 163.078751,26.4979689 164.030501,28.0296649 L161.462268,29.9752585 C160.944488,29.0228812 160.592031,28.5678005 159.784938,28.5678005 C158.830892,28.5678005 158.354443,29.520063 158.354443,31.2377146 C158.354443,32.9563988 158.872222,33.8454524 159.888264,33.8454524 C160.592031,33.8454524 161.089145,33.4524333 161.772247,32.4381092 L164.133827,34.2799989 C162.87095,36.1431112 161.689586,36.8676612 159.763124,36.8676612 C156.573786,36.8676612 154.66799,34.8398159 154.66799,31.1761118 C154.66799,27.8433652 156.367133,25.5460505 159.846934,25.5460505 Z M74.8565747,25.5460505 C77.8396049,25.5460505 79.7041854,27.5122931 79.7041854,31.5479083 C79.7041854,31.8591345 79.7041854,32.0863881 79.6830609,32.2733761 L73.3034656,32.2733761 C73.4278015,33.4737706 74.1315685,34.0112179 75.1468067,34.0112179 C76.0994752,34.0112179 76.8870512,33.8041544 77.9639409,33.2454846 L79.392714,35.625854 C78.0469464,36.4118922 76.6585853,36.8676612 74.9608194,36.8676612 C71.6874422,36.8676612 69.8855464,34.5487799 69.8855464,31.2164921 C69.8855464,27.4709951 71.9979952,25.5460505 74.8565747,25.5460505 Z M86.7027053,25.5460505 C88.7533879,25.5460505 89.9345223,26.4979689 90.8869612,28.0296649 L88.318499,29.9752585 C87.8008342,29.0228812 87.4479175,28.5678005 86.6410539,28.5678005 C85.687467,28.5678005 85.2112476,29.520063 85.2112476,31.2377146 C85.2112476,32.9563988 85.7290271,33.8454524 86.7441506,33.8454524 C87.4479175,33.8454524 87.9454911,33.4524333 88.6290519,32.4381092 L90.9901727,34.2799989 C89.7271809,36.1431112 88.5461613,36.8676612 86.6196998,36.8676612 C83.4304762,36.8676612 81.5244504,34.8398159 81.5244504,31.1761118 C81.5244504,27.8433652 83.2231347,25.5460505 86.7027053,25.5460505 Z M112.030163,21.9238739 C115.593427,21.9238739 117.002109,23.4555699 117.996338,26.1877752 L114.350757,27.6158821 C113.832059,26.2704859 113.335518,25.4218124 112.009842,25.4218124 C110.332167,25.4218124 109.607276,27.0980514 109.607276,29.3957102 C109.607276,31.6106583 110.311043,33.3697227 112.051287,33.3697227 C113.314279,33.3697227 113.853183,32.6867 114.639955,31.32054 L118.037669,33.1211318 C117.064105,35.0256568 115.447623,36.8676612 112.009842,36.8676612 C107.701135,36.8676612 105.401666,33.6799164 105.401666,29.3957102 C105.401666,24.7389045 108.136024,21.9238739 112.030163,21.9238739 Z M133.587129,25.7735335 L133.587129,31.9419599 C133.587129,33.3485001 134.063578,33.7212143 134.830488,33.7212143 C135.597399,33.7212143 136.0727,33.3485001 136.0727,31.9823401 L136.0727,25.7735335 L139.822297,25.7735335 L139.822297,36.6402929 L136.0727,36.6402929 L136.0727,35.9148252 C135.410264,36.4320823 134.622688,36.8676612 133.359811,36.8676612 C130.977565,36.8676612 129.83868,35.2742477 129.83868,32.4168866 L129.83868,25.7735335 L133.587129,25.7735335 Z M70.302181,22.151701 L70.302181,25.6496396 L66.2422611,25.6496396 L66.2422611,36.6402929 L62.2237865,36.6402929 L62.2237865,25.6496396 L58.1638665,25.6496396 L58.1638665,22.151701 L70.302181,22.151701 Z M96.8287975,21.5515038 L96.8287975,26.4979689 C97.5123583,25.9807117 98.2788099,25.5460505 99.563041,25.5460505 C101.945516,25.5460505 103.084975,27.1395788 103.084975,29.9959074 L103.084975,36.6402929 L99.3354935,36.6402929 L99.3354935,30.4718666 C99.3354935,29.0642939 98.8592741,28.6920386 98.0928225,28.6920386 C97.3051317,28.6920386 96.8287975,29.0642939 96.8287975,30.4303392 L96.8287975,36.6402929 L93.100555,36.6402929 L93.100555,23.0417871 L96.8287975,21.5515038 Z M126.319845,25.5460505 C127.106273,25.5460505 127.644718,25.7320061 128.079837,26.0013607 L127.2096,29.8716694 C126.733151,29.3542975 126.194706,28.9612784 125.470274,28.9612784 C124.557558,28.9612784 123.998448,29.3957102 123.998448,30.7203428 L123.998448,36.6402929 L120.270665,36.6402929 L120.270665,25.7735335 L123.998448,25.7735335 L123.998448,26.5600306 C124.640219,25.9391843 125.365799,25.5460505 126.319845,25.5460505 Z M148.974711,25.5460505 C151.356956,25.5460505 152.496989,27.1395788 152.496989,29.9959074 L152.496989,36.6402929 L148.747393,36.6402929 L148.747393,30.4718666 C148.747393,29.0642939 148.270944,28.6920386 147.505181,28.6920386 C146.717605,28.6920386 146.241156,29.0642939 146.241156,30.4303392 L146.241156,36.6402929 L142.512225,36.6402929 L142.512225,25.7735335 L146.241156,25.7735335 L146.241156,26.4979689 C146.924258,25.9807117 147.691168,25.5460505 148.974711,25.5460505 Z M169.972911,21.5515038 L169.972911,26.4979689 C170.656013,25.9807117 171.422923,25.5460505 172.706466,25.5460505 C175.088711,25.5460505 176.228744,27.1395788 176.228744,29.9959074 L176.228744,36.6402929 L172.479148,36.6402929 L172.479148,30.4718666 C172.479148,29.0642939 172.002699,28.6920386 171.236936,28.6920386 C170.448212,28.6920386 169.972911,29.0642939 169.972911,30.4303392 L169.972911,36.6402929 L166.24398,36.6402929 L166.24398,23.0417871 L169.972911,21.5515038 Z M74.753478,28.2990195 C73.904021,28.2990195 73.4278015,28.8783383 73.3034656,29.9544948 L76.4108318,29.9544948 C76.2238112,28.8576893 75.8505737,28.2990195 74.753478,28.2990195 Z M49.7021314,15.9473684 L49.7021314,24.2245153 L33.1347926,24.2245153 L33.1347926,15.9473684 L49.7021314,15.9473684 Z" id="Combined-Shape" fill="#D5D8E3"></path>
            </g>
        </g>
    </g>
</svg>