<?xml version="1.0" encoding="UTF-8"?>
<svg width="123px" height="26px" viewBox="0 0 123 26" version="1.1" xmlns="http://www.w3.org/2000/svg" xmlns:xlink="http://www.w3.org/1999/xlink">
    <!-- Generator: sketchtool 63.1 (101010) - https://sketch.com -->
    <title>CA0F8190-62EB-4361-B5DF-13567B2F5CDD@1.5x</title>
    <desc>Created with sketchtool.</desc>
    <g id="Home" stroke="none" stroke-width="1" fill="none" fill-rule="evenodd">
        <g id="3.0_web_home_2" transform="translate(-541.000000, -782.000000)">
            <g id="hp_yourstore_logo" transform="translate(535.000000, 767.000000)">
                <rect id="Rectangle" x="0" y="0" width="144.052632" height="54.5789474"></rect>
                <path d="M11.2191671,40.6855315 L11.2191671,32.5792414 L6.33123854,16.2268955 L10.3752082,16.2268955 L13.2938993,27.3730454 L13.3642292,27.3730454 L16.2829203,16.2268955 L19.9752404,16.2268955 L15.087312,32.5792414 L15.087312,40.6855315 L11.2191671,40.6855315 Z M24.5466844,21.8523817 L24.5466844,35.0600453 C24.5466844,36.8070906 25.3203133,37.4709681 26.5510867,37.4709681 C27.7818601,37.4709681 28.5554891,36.8070906 28.5554891,35.0600453 L28.5554891,21.8523817 C28.5554891,20.1053365 27.7818601,19.4414589 26.5510867,19.4414589 C25.3203133,19.4414589 24.5466844,20.1053365 24.5466844,21.8523817 Z M20.6785395,34.8154588 L20.6785395,22.0969682 C20.6785395,18.1835867 22.7532718,15.9473684 26.5510867,15.9473684 C30.3489017,15.9473684 32.4236339,18.1835867 32.4236339,22.0969682 L32.4236339,34.8154588 C32.4236339,38.7288412 30.3489017,40.9650594 26.5510867,40.9650594 C22.7532718,40.9650594 20.6785395,38.7288412 20.6785395,34.8154588 Z M34.7445209,16.2268955 L38.6126657,16.2268955 L38.6126657,35.0949867 C38.6126657,36.842032 39.3862947,37.4709681 40.6170681,37.4709681 C41.8478414,37.4709681 42.6214704,36.842032 42.6214704,35.0949867 L42.6214704,16.2268955 L46.2786258,16.2268955 L46.2786258,34.8504002 C46.2786258,38.7637817 44.3093882,41 40.5115732,41 C36.7137582,41 34.7445209,38.7637817 34.7445209,34.8504002 L34.7445209,16.2268955 Z M60.942411,40.6855315 L57.0039361,40.6855315 C56.7929468,40.0565954 56.6522864,39.6722458 56.6522864,37.680614 L56.6522864,33.8371136 C56.6522864,31.5659548 55.878658,30.7273728 54.1204103,30.7273728 L52.7841421,30.7273728 L52.7841421,40.6855315 L48.915997,40.6855315 L48.915997,16.2268955 L54.7533791,16.2268955 C58.7621838,16.2268955 60.485267,18.0787641 60.485267,21.8523817 L60.485267,23.7741323 C60.485267,26.2898776 59.6764726,27.897159 57.9533902,28.7008004 L57.9533902,28.7706816 C59.8874627,29.574323 60.5204315,31.3912503 60.5204315,33.9419362 L60.5204315,37.7155546 C60.5204315,38.9035457 60.5555968,39.7770683 60.942411,40.6855315 Z M54.6478841,19.7209868 L52.7841421,19.7209868 L52.7841421,27.2332822 L54.2962352,27.2332822 C55.7379977,27.2332822 56.6171219,26.6043453 56.6171219,24.6476549 L56.6171219,22.2367322 C56.6171219,20.4896869 56.0193176,19.7209868 54.6478841,19.7209868 Z M62.5599992,22.0969682 C62.5599992,18.1835867 64.4940717,15.9473684 68.2567218,15.9473684 C72.019371,15.9473684 73.9534436,18.1835867 73.9534436,22.0969682 L73.9534436,22.8656683 L70.2962886,22.8656683 L70.2962886,21.8523817 C70.2962886,20.1053365 69.59299,19.4414589 68.3622161,19.4414589 C67.1314429,19.4414589 66.4281435,20.1053365 66.4281435,21.8523817 C66.4281435,23.6343684 67.2017727,24.9621226 69.7336496,27.1634003 C72.9688251,29.9936141 73.9886089,32.0201864 73.9886089,34.8154588 C73.9886089,38.7288412 72.019371,40.9650594 68.2215565,40.9650594 C64.4237412,40.9650594 62.4545041,38.7288412 62.4545041,34.8154588 L62.4545041,33.3130001 L66.1116591,33.3130001 L66.1116591,35.0600453 C66.1116591,36.8070906 66.8852883,37.4360275 68.1160614,37.4360275 C69.3468346,37.4360275 70.1204638,36.8070906 70.1204638,35.0600453 C70.1204638,33.2780595 69.3468346,31.9503044 66.8149585,29.7490276 C63.579783,26.9188138 62.5599992,24.8922414 62.5599992,22.0969682 Z M75.0787225,19.7209868 L75.0787225,16.2268955 L87.0348067,16.2268955 L87.0348067,19.7209868 L82.9908368,19.7209868 L82.9908368,40.6855315 L79.1226917,40.6855315 L79.1226917,19.7209868 L75.0787225,19.7209868 Z M92.2743846,21.8523817 L92.2743846,35.0600453 C92.2743846,36.8070906 93.0480138,37.4709681 94.2787869,37.4709681 C95.5095601,37.4709681 96.2831893,36.8070906 96.2831893,35.0600453 L96.2831893,21.8523817 C96.2831893,20.1053365 95.5095601,19.4414589 94.2787869,19.4414589 C93.0480138,19.4414589 92.2743846,20.1053365 92.2743846,21.8523817 Z M88.4062395,34.8154588 L88.4062395,22.0969682 C88.4062395,18.1835867 90.4809716,15.9473684 94.2787869,15.9473684 C98.0766015,15.9473684 100.151334,18.1835867 100.151334,22.0969682 L100.151334,34.8154588 C100.151334,38.7288412 98.0766015,40.9650594 94.2787869,40.9650594 C90.4809716,40.9650594 88.4062395,38.7288412 88.4062395,34.8154588 Z M114.67446,40.6855315 L110.735985,40.6855315 C110.524995,40.0565954 110.384335,39.6722458 110.384335,37.680614 L110.384335,33.8371136 C110.384335,31.5659548 109.610706,30.7273728 107.852459,30.7273728 L106.51619,30.7273728 L106.51619,40.6855315 L102.648046,40.6855315 L102.648046,16.2268955 L108.485428,16.2268955 C112.494233,16.2268955 114.217315,18.0787641 114.217315,21.8523817 L114.217315,23.7741323 C114.217315,26.2898776 113.408522,27.897159 111.685439,28.7008004 L111.685439,28.7706816 C113.619511,29.574323 114.252481,31.3912503 114.252481,33.9419362 L114.252481,37.7155546 C114.252481,38.9035457 114.287645,39.7770683 114.67446,40.6855315 Z M108.379933,19.7209868 L106.51619,19.7209868 L106.51619,27.2332822 L108.028283,27.2332822 C109.470047,27.2332822 110.349171,26.6043453 110.349171,24.6476549 L110.349171,22.2367322 C110.349171,20.4896869 109.751367,19.7209868 108.379933,19.7209868 Z M120.054697,40.6855315 L120.054697,32.5792414 L115.166769,16.2268955 L119.210738,16.2268955 L122.12943,27.3730454 L122.19976,27.3730454 L125.118451,16.2268955 L128.810771,16.2268955 L123.922843,32.5792414 L123.922843,40.6855315 L120.054697,40.6855315 Z" id="yourstore_logo" fill="#D8DCE6" fill-rule="nonzero"></path>
            </g>
        </g>
    </g>
</svg>