<?xml version="1.0" encoding="UTF-8"?>
<svg width="132px" height="35px" viewBox="0 0 132 35" version="1.1" xmlns="http://www.w3.org/2000/svg" xmlns:xlink="http://www.w3.org/1999/xlink">
    <!-- Generator: sketchtool 56.2 (101010) - https://sketch.com -->
    <title>75F69DFF-F8C7-475C-9DD3-B817BAC34E2B@1.5x</title>
    <desc>Created with sketchtool.</desc>
    <defs>
        <linearGradient x1="10.846905%" y1="111.071492%" x2="68.9485624%" y2="-1.64656425%" id="linearGradient-1">
            <stop stop-color="#674695" offset="0%"></stop>
            <stop stop-color="#823B91" offset="23%"></stop>
            <stop stop-color="#C31D8B" offset="73%"></stop>
            <stop stop-color="#E91287" offset="100%"></stop>
        </linearGradient>
        <linearGradient x1="24.5424707%" y1="100.819039%" x2="68.905457%" y2="26.8039441%" id="linearGradient-2">
            <stop stop-color="#EA188A" offset="0%"></stop>
            <stop stop-color="#EC1E82" offset="8%"></stop>
            <stop stop-color="#ED356E" offset="22%"></stop>
            <stop stop-color="#F05949" offset="38%"></stop>
            <stop stop-color="#F38020" offset="54%"></stop>
            <stop stop-color="#F58820" offset="100%"></stop>
        </linearGradient>
    </defs>
    <g id="Careers" stroke="none" stroke-width="1" fill="none" fill-rule="evenodd">
        <g id="career_page_1.1" transform="translate(-105.000000, -25.000000)" fill-rule="nonzero">
            <g id="logo_w-copy" transform="translate(105.000000, 25.000000)">
                <path d="M32.4028934,9.00137193 C32.2592981,8.68645535 32.084418,8.3869073 31.8809137,8.10728495 C29.6970226,4.62623111 26.3433905,2.04680786 22.4283968,0.836946083 L22.1941751,0.736109206 C22.1941751,0.736109206 14.9065355,-1.28062834 11.1924492,3.71415832 C10.8096584,4.22726828 10.4736962,4.77400027 10.1886421,5.34771574 C9.9820779,5.09142642 9.7410947,4.865185 9.47259306,4.67546989 C7.21402707,3.10577583 5.21645093,5.19646042 5.21645093,5.19646042 L5.21645093,5.23007271 C-0.907211872,11.5352536 -1.27695082,21.4763911 4.36127856,28.2230149 C9.99950793,34.9696387 19.8101826,36.3253885 27.0524721,31.3587402 C34.2947617,26.3920919 36.610942,16.7199356 32.4095854,8.98792701 L32.4028934,9.00137193 Z M17.372555,25.5958327 C14.8520066,25.605584 12.4309065,24.6087018 10.6423316,22.8246074 C8.85375666,21.040513 7.84435904,18.615491 7.83638151,16.083482 C7.83425742,14.1855739 8.40217252,12.3311693 9.46590102,10.7626561 C9.75365905,11.9962272 10.8611929,15.6935794 14.1068359,17.6262862 C18.0384137,19.9791467 21.0699112,18.9506105 22.2042132,17.4145287 C23.161176,16.1170943 22.9737986,14.3625326 22.0168359,12.7961998 C21.762944,12.3811909 21.6125723,11.9107294 21.5785068,11.4248182 C21.464582,10.788163 21.7121089,10.1406325 22.2209433,9.74420359 C23.0507572,9.17951708 24.4694712,9.56605844 25.2323646,10.688709 L25.2323646,10.688709 C26.3236707,12.2676737 26.9075125,14.1444577 26.9053823,16.0666758 C26.9000595,18.6004644 25.8925081,21.0282536 24.1045626,22.8154983 C22.3166171,24.6027429 19.8948768,25.6029013 17.372555,25.5958327 L17.372555,25.5958327 Z" id="Shape" fill="#E91287"></path>
                <path d="M22.1941751,17.4044451 C23.1511379,16.1103718 22.9671066,14.2986692 22.0168359,12.7961998 C21.3810914,11.787831 21.2439044,10.366031 21.1535618,9.98957333 C20.7553849,8.33584854 20.8591117,4.42001646 23.8303807,4.12422829 C25.3379994,3.97160681 26.8182619,4.60598794 27.7519205,5.80484291 C26.831764,2.89401838 23.8404188,0.500823158 19.6143909,0.339484154 C17.1550635,0.205034984 13.5012056,0.615104953 11.2058333,3.7007134 C10.8234371,4.21527957 10.4875031,4.76309064 10.2020262,5.33763205 C9.45470285,7.03486948 9.20736646,8.91173681 9.48932318,10.7458499 C9.77708122,11.979421 10.8846151,15.673412 14.126912,17.6027576 C18.0350677,19.9522568 21.0632191,18.9371656 22.1941751,17.4044451 Z" id="Path" fill="url(#linearGradient-1)"></path>
                <path d="M17.372555,25.5957607 C14.8520066,25.605584 12.4309065,24.6087018 10.6423316,22.8246074 C8.85375666,21.040513 7.84435904,18.615491 7.83638748,16.083482 C7.83460861,14.2021655 8.39275381,12.3632702 9.43913283,10.8029908 L9.43913283,10.8029908 C9.15878562,8.96775974 9.4060503,7.09027041 10.1518359,5.39141172 C10.1518359,5.39141172 10.168566,5.36452188 10.175258,5.34771574 C9.96991081,5.09148232 9.73003893,4.86522698 9.46255499,4.67546989 C7.203989,3.10577583 5.20641286,5.19982165 5.20641286,5.19982165 L5.20641286,5.24687886 C1.2233525,9.33803637 -0.470313925,15.1529173 0.68928088,20.7555906 C4.63424281,24.4294142 10.2354865,25.6125669 16.2583291,25.7772671 C23.1109856,25.9621347 25.145368,21.5925367 25.145368,21.5925367 L25.145368,21.5925367 C23.3508738,24.1105788 20.4553251,25.6018703 17.372555,25.5957607 L17.372555,25.5957607 Z" id="Path" fill="url(#linearGradient-2)"></path>
                <path d="M51.6257995,28.7452325 C50.0744203,28.7594948 48.5363809,28.4564359 47.1053215,27.8545068 C42.9453587,26.08584 40.2572153,21.9722706 40.2961633,17.4346961 L40.2961633,17.374194 C40.290683,15.8660042 40.582962,14.3716922 41.1560914,12.9777061 C41.7100309,11.6245597 42.5241428,10.3944158 43.5518443,9.35766223 C46.9116497,6.09047891 51.880421,5.13603646 56.2031599,6.92749348 C58.9041796,8.05387006 61.0465852,10.2156895 62.155736,12.9340102 C62.7296985,14.3288091 63.0209083,15.8246133 63.0125028,17.3338592 L63.0125028,17.3943614 C63.0200087,18.9089645 62.7288754,20.4100879 62.155736,21.8110166 C61.598645,23.1575135 60.7847857,24.3815665 59.7599831,25.4142544 C57.6007548,27.5712733 54.6708109,28.7686746 51.6257995,28.7385101 M52.0039002,23.283235 C52.7846363,23.2920073 53.5581873,23.1326973 54.2725042,22.8160241 C54.9333017,22.5202537 55.5257798,22.0898997 56.0124365,21.5522019 C56.4951356,21.006597 56.8739469,20.3765533 57.1300085,19.6934422 C57.4023542,18.9766914 57.5396442,18.2153155 57.5348773,17.448141 L57.5348773,17.3842777 C57.5396442,16.6171032 57.4023542,15.8557273 57.1300085,15.1389765 C56.869595,14.4471977 56.4800547,13.8117458 55.9823223,13.2667718 C55.4812832,12.7243536 54.8801365,12.2848579 54.2122758,11.9726986 C53.5010935,11.6445665 52.7262258,11.4792449 51.9436717,11.4886816 C51.1570938,11.4785393 50.3779553,11.6426494 49.6616836,11.9693374 C48.3306977,12.5829021 47.3010356,13.7080813 46.8041794,15.0919193 C46.5437174,15.8114274 46.4123042,16.5716251 46.4159454,17.3372205 L46.4159454,17.4010838 C46.411821,18.1679075 46.5479223,18.9289814 46.8175635,19.646385 C47.0777609,20.3370111 47.4635344,20.9730106 47.9552115,21.5219509 C48.4478093,22.0679987 49.0453688,22.5082004 49.7118739,22.8160241 C50.4222973,23.1425122 51.1959568,23.3066719 51.977132,23.2966799" id="Shape" fill="#663399"></path>
                <path d="M104.717157,22.725271 L104.23533,22.3219234 C103.398824,21.7370696 102.227716,21.5051447 100.675161,22.3017561 C100.475737,22.4072581 100.267485,22.4949862 100.0528,22.563932 C99.2983165,22.8894365 98.4848383,23.0542449 97.6637394,23.047949 C96.5916862,23.0841115 95.5362987,22.7743023 94.6523181,22.1639457 C93.7867617,21.5026606 93.1917421,20.5463028 92.9793063,19.4749623 L107.427437,19.4749623 C107.454328,19.2069142 107.467674,18.9376731 107.467674,18.6682673 L107.467674,17.9052682 C107.472698,16.3598197 107.247122,14.8223349 106.798384,13.3440801 C106.38577,11.9622101 105.703288,10.6767404 104.79077,9.56269721 C103.868373,8.45337097 102.708593,7.56751893 101.397902,6.97118946 C99.8710141,6.29494553 98.2143704,5.96555423 96.5461675,6.00651667 C95.0373627,5.98913248 93.5417465,6.29030212 92.1561844,6.89051996 C90.8546668,7.46144836 89.6804493,8.28896464 88.703088,9.32404994 C87.7228362,10.3709055 86.9566186,11.600826 86.447868,12.9440938 C85.9083552,14.3612096 85.6371362,15.8671027 85.6481684,17.3842777 L85.6481684,17.4649472 C85.6267525,19.0475628 85.9190721,20.6186371 86.5080964,22.0866374 C87.0438552,23.4317294 87.8608495,24.6455963 88.9038494,25.6461792 C89.9584254,26.6444787 91.1990397,27.423529 92.5543613,27.9385375 C94.0507662,28.5051477 95.6397705,28.7844872 97.2387944,28.7620387 C99.3936337,28.7620387 101.236177,28.3598116 102.766426,27.5553574 C103.996883,26.9159205 105.103914,26.0611013 106.035491,25.0310742 C105.766875,24.1734771 105.309418,23.387671 104.697081,22.7319934 M94.1637986,12.6953629 C94.7906615,11.9903932 95.6959856,11.6002823 96.6365102,11.6298532 C97.601776,11.5977687 98.5337632,11.9862275 99.1928723,12.6953629 C99.8970222,13.4955378 100.318155,14.5070678 100.390749,15.5725751 L92.8722335,15.5725751 C93.0170216,14.5108508 93.4604478,13.5126892 94.1504146,12.6953629" id="Shape" fill="#663399"></path>
                <path d="M129.584805,28.7485938 C130.73877,28.6188102 131.617907,27.6493796 131.639264,26.4831253 L131.639264,14.1911099 C131.639264,11.6432981 130.970059,9.64224631 129.63165,8.18795445 C128.29324,6.7336626 126.439543,6.00763708 124.070558,6.0098779 C123.346291,6.00227659 122.625165,6.10657248 121.932449,6.31911099 C121.310977,6.5133955 120.715441,6.78316898 120.159057,7.12244478 C119.635629,7.44528643 119.153555,7.83134354 118.723613,8.27198518 C118.304823,8.6933717 117.914691,9.14254712 117.55585,9.61647688 L117.55585,6.49053368 L109.756269,6.49053368 L109.756269,28.7351489 L117.55585,28.7351489 L117.55585,16.7019481 C117.55585,15.468377 117.856992,14.5339553 118.462623,13.9054054 C119.065227,13.2731903 119.907218,12.9285073 120.778071,12.9575388 C121.620951,12.9270072 122.433754,13.2742956 122.996485,13.9054054 C123.563078,14.5350757 123.845259,15.4672566 123.843029,16.7019481 L123.843029,28.7485938 L129.584805,28.7485938 Z" id="Path" fill="#663399"></path>
                <path d="M74.4222589,22.2412539 C75.7374831,22.2510101 77.0475113,22.0744898 78.3136844,21.7169022 C79.4339175,21.4080157 80.4815788,20.8778052 81.3953723,20.1572918 C82.2517792,19.4673001 82.9386972,18.5886496 83.4029865,17.5893127 C83.9083857,16.4773864 84.1577122,15.2653 84.1324196,14.0432158 L84.1324196,13.9860749 C84.1492481,12.8241457 83.9211869,11.6717848 83.4632149,10.6046783 C83.0370615,9.62981306 82.3909796,8.76790805 81.5760575,8.08711757 C80.698,7.37505699 79.6881023,6.84496462 78.6047885,6.5275072 C77.3560244,6.15612436 76.0591416,5.97373568 74.7568613,5.98634929 L65.0533926,5.98634929 L65.0533926,28.7452325 L71.3171489,28.7452325 L71.3171489,24.4865551 C71.3514219,23.2433059 72.361056,22.2513906 73.5991371,22.2446152 L74.4222589,22.2412539 Z M77.7917047,14.3658938 C77.8255041,15.1938864 77.4773719,15.9912843 76.8481261,16.5271642 C76.2146122,17.0537568 75.3435307,17.3181735 74.2348816,17.3204143 L71.2836887,17.3204143 L71.2836887,11.3138977 L74.2014213,11.3138977 C75.3357234,11.3138977 76.2090355,11.5659898 76.8481261,12.0768967 C77.496944,12.6259652 77.8482531,13.4514897 77.7950508,14.3020305 L77.7950508,14.3658938 L77.7917047,14.3658938 Z" id="Shape" fill="#663399"></path>
            </g>
        </g>
    </g>
</svg>